<?xml version="1.0" standalone="no"?>
<!DOCTYPE svg PUBLIC "-//W3C//DTD SVG 20010904//EN"
 "http://www.w3.org/TR/2001/REC-SVG-20010904/DTD/svg10.dtd">
<svg version="1.0" xmlns="http://www.w3.org/2000/svg"
 width="744.000000pt" height="360.000000pt" viewBox="0 0 744.000000 360.000000"
 preserveAspectRatio="xMidYMid meet">

<g transform="translate(0.000000,360.000000) scale(0.100000,-0.100000)"
fill="#000000" stroke="none">
<path d="M3320 2990 c0 -57 1 -60 24 -60 13 0 31 3 40 6 18 7 22 39 6 49 -6 4
-5 13 3 26 15 24 -2 39 -45 39 -27 0 -28 -1 -28 -60z m50 25 c0 -8 -7 -15 -15
-15 -8 0 -15 7 -15 15 0 8 7 15 15 15 8 0 15 -7 15 -15z m3 -50 c1 -5 -6 -11
-15 -13 -11 -2 -18 3 -18 13 0 17 30 18 33 0z"/>
<path d="M3420 2990 c0 -47 3 -60 15 -60 12 0 15 13 15 60 0 47 -3 60 -15 60
-12 0 -15 -13 -15 -60z"/>
<path d="M3730 2991 c0 -34 4 -61 10 -61 6 0 10 8 10 18 0 11 12 22 31 29 25
10 30 16 27 40 -3 24 -8 28 -40 31 l-38 3 0 -60z m55 19 c0 -22 -29 -18 -33 3
-3 14 1 18 15 15 10 -2 18 -10 18 -18z"/>
<path d="M4012 3023 c-13 -28 0 -87 20 -91 15 -3 17 2 11 28 -4 22 -2 35 8 41
10 6 10 9 2 9 -7 0 -13 7 -13 15 0 20 -17 19 -28 -2z"/>
<path d="M3477 3004 c-12 -13 -8 -51 8 -64 9 -7 25 -10 40 -6 22 6 26 11 23
39 -3 28 -7 32 -33 35 -17 2 -34 0 -38 -4z m51 -32 c2 -14 -2 -22 -12 -22 -19
0 -29 17 -22 36 8 22 30 12 34 -14z"/>
<path d="M3574 2985 c-8 -31 13 -58 38 -51 12 3 18 0 15 -7 -2 -7 -13 -13 -25
-15 -30 -5 -28 -22 2 -22 32 0 56 35 56 82 0 38 0 38 -40 38 -34 0 -41 -4 -46
-25z m56 -16 c0 -20 -24 -26 -35 -9 -8 13 14 42 26 34 5 -3 9 -14 9 -25z"/>
<path d="M3832 2998 c-27 -27 -6 -68 34 -68 30 0 48 24 40 55 -5 19 -13 25
-34 25 -15 0 -33 -5 -40 -12z m54 -37 c-11 -18 -36 -13 -36 7 0 10 3 22 7 26
10 10 37 -20 29 -33z"/>
<path d="M3930 2991 c0 -10 8 -22 18 -26 15 -7 14 -9 -8 -15 -23 -7 -23 -8 -6
-15 20 -9 47 3 54 24 2 7 -5 15 -17 18 -26 7 -27 20 -3 26 10 3 6 5 -10 6 -21
1 -28 -4 -28 -18z"/>
<path d="M4070 2994 c0 -9 8 -23 18 -30 16 -13 16 -13 0 -14 -10 0 -18 -4 -18
-10 0 -12 30 -13 49 -1 17 11 7 41 -14 41 -21 0 -19 17 3 23 10 3 6 5 -10 6
-20 1 -28 -4 -28 -15z"/>
<path d="M657 2375 c-17 -49 -16 -51 13 -32 17 10 22 9 30 -3 5 -8 12 -11 16
-8 8 9 -20 81 -34 86 -5 1 -17 -18 -25 -43z m29 -12 c-11 -11 -17 4 -9 23 7
18 8 18 11 1 2 -10 1 -21 -2 -24z"/>
<path d="M780 2405 c0 -8 -7 -15 -15 -15 -17 0 -34 -29 -28 -47 3 -7 18 -13
34 -13 28 0 29 2 29 45 0 25 -4 45 -10 45 -5 0 -10 -7 -10 -15z m0 -45 c0 -11
-7 -20 -15 -20 -15 0 -21 21 -8 33 12 13 23 7 23 -13z"/>
<path d="M1080 2375 c0 -25 5 -45 10 -45 6 0 10 7 10 15 0 8 6 15 14 15 7 0
19 7 26 15 17 20 -3 45 -36 45 -22 0 -24 -4 -24 -45z m42 3 c-15 -15 -26 -4
-18 18 5 13 9 15 18 6 9 -9 9 -15 0 -24z"/>
<path d="M1410 2375 c0 -25 5 -45 10 -45 6 0 10 20 10 45 0 25 -4 45 -10 45
-5 0 -10 -20 -10 -45z"/>
<path d="M1600 2375 c0 -25 5 -45 10 -45 6 0 10 5 10 11 0 8 4 8 13 0 11 -8
14 -5 14 19 0 24 -3 27 -14 19 -10 -9 -13 -6 -13 15 0 14 -4 26 -10 26 -5 0
-10 -20 -10 -45z"/>
<path d="M1810 2406 c0 -8 -10 -16 -22 -18 -17 -2 -23 -10 -23 -28 0 -20 6
-26 28 -28 26 -3 27 -2 27 42 0 25 -2 46 -5 46 -3 0 -5 -6 -5 -14z m-5 -46 c0
-7 -6 -15 -12 -17 -8 -3 -13 4 -13 17 0 13 5 20 13 18 6 -3 12 -11 12 -18z"/>
<path d="M2813 2408 c9 -7 18 -29 20 -48 l4 -35 1 37 c1 23 8 41 20 47 14 8 9
10 -22 11 -34 0 -37 -2 -23 -12z"/>
<path d="M4970 2375 c0 -25 5 -45 10 -45 6 0 10 9 10 20 0 29 37 27 43 -2 2
-13 4 0 4 27 0 28 -2 40 -4 28 -6 -30 -43 -32 -43 -3 0 11 -4 20 -10 20 -5 0
-10 -20 -10 -45z"/>
<path d="M5130 2375 c0 -25 5 -45 10 -45 6 0 10 20 10 45 0 25 -4 45 -10 45
-5 0 -10 -20 -10 -45z"/>
<path d="M5170 2375 c0 -25 5 -45 10 -45 6 0 10 20 10 45 0 25 -4 45 -10 45
-5 0 -10 -20 -10 -45z"/>
<path d="M2998 2398 c-7 -20 4 -68 16 -68 9 0 12 25 7 73 -1 11 -19 8 -23 -5z"/>
<path d="M821 2355 c1 -26 2 -27 7 -7 9 30 26 30 31 0 l4 -23 6 23 c3 13 11
23 16 23 6 0 13 -10 17 -23 5 -20 6 -19 7 9 1 31 0 31 -44 30 -43 -1 -45 -2
-44 -32z"/>
<path d="M930 2360 c0 -16 5 -30 10 -30 6 0 10 14 10 30 0 17 -4 30 -10 30 -5
0 -10 -13 -10 -30z"/>
<path d="M970 2361 c0 -17 5 -31 10 -31 6 0 10 11 10 25 0 14 5 25 10 25 6 0
10 -11 10 -25 0 -14 5 -25 11 -25 6 0 9 12 7 28 -2 21 -9 28 -30 30 -25 3 -28
0 -28 -27z"/>
<path d="M1170 2382 c17 -8 26 -42 10 -42 -5 0 -10 5 -10 11 0 5 -5 7 -10 4
-17 -10 -1 -25 26 -25 22 0 25 4 22 28 -2 21 -9 28 -28 29 -16 2 -20 0 -10 -5z"/>
<path d="M1225 2369 c-8 -24 1 -35 30 -42 18 -4 18 -5 -5 -15 -24 -10 -24 -11
-3 -11 25 -1 43 25 43 63 0 22 -5 26 -29 26 -21 0 -32 -6 -36 -21z m43 -12 c2
-10 -3 -17 -12 -17 -10 0 -16 9 -16 21 0 24 23 21 28 -4z"/>
<path d="M1305 2371 c-8 -27 1 -41 28 -40 21 0 21 1 2 9 -19 8 -19 9 3 9 17 1
23 6 20 19 -5 25 -45 28 -53 3z m35 -1 c0 -5 -4 -10 -10 -10 -5 0 -10 5 -10
10 0 6 5 10 10 10 6 0 10 -4 10 -10z"/>
<path d="M1450 2375 c-17 -21 -5 -45 24 -45 27 0 42 26 25 46 -15 18 -33 18
-49 -1z m40 -15 c0 -11 -7 -20 -15 -20 -8 0 -15 9 -15 20 0 11 7 20 15 20 8 0
15 -9 15 -20z"/>
<path d="M1524 2376 c-10 -26 4 -48 28 -44 17 2 23 10 23 28 0 18 -6 26 -23
28 -13 2 -25 -3 -28 -12z m41 -16 c0 -7 -6 -15 -12 -17 -8 -3 -13 4 -13 17 0
13 5 20 13 18 6 -3 12 -11 12 -18z"/>
<path d="M1674 2378 c-4 -6 1 -17 10 -24 16 -12 16 -13 -1 -17 -14 -4 -14 -5
5 -6 24 -1 31 24 10 32 -10 4 -9 8 2 16 13 9 13 11 -2 11 -9 0 -20 -5 -24 -12z"/>
<path d="M1844 2376 c-10 -26 4 -48 28 -44 17 2 23 10 23 28 0 18 -6 26 -23
28 -13 2 -25 -3 -28 -12z m42 -7 c8 -14 -11 -33 -25 -25 -11 7 -4 36 9 36 5 0
12 -5 16 -11z"/>
<path d="M1920 2346 c0 -25 5 -46 10 -46 6 0 10 7 10 15 0 8 9 15 21 15 16 0
20 5 17 28 -2 21 -9 28 -30 30 -27 3 -28 2 -28 -42z m45 14 c0 -7 -6 -15 -12
-17 -8 -3 -13 4 -13 17 0 13 5 20 13 18 6 -3 12 -11 12 -18z"/>
<path d="M2007 2384 c-4 -4 -7 -18 -7 -31 0 -19 5 -23 28 -22 l27 1 -25 8
c-25 8 -25 8 -2 9 17 1 22 6 20 18 -3 19 -29 29 -41 17z m33 -14 c0 -5 -7 -10
-16 -10 -8 0 -12 5 -9 10 3 6 10 10 16 10 5 0 9 -4 9 -10z"/>
<path d="M2874 2375 c-10 -24 4 -45 28 -44 21 0 21 1 4 8 -19 7 -19 8 2 13 15
4 20 11 16 22 -8 20 -43 21 -50 1z m36 -5 c0 -5 -4 -10 -10 -10 -5 0 -10 5
-10 10 0 6 5 10 10 10 6 0 10 -4 10 -10z"/>
<path d="M2940 2375 c0 -9 8 -19 17 -22 15 -6 15 -7 -3 -14 -17 -7 -17 -8 4
-8 26 -1 30 24 5 34 -17 7 -16 8 2 15 19 8 19 9 -2 9 -14 1 -23 -5 -23 -14z"/>
<path d="M5065 2371 c-8 -27 1 -41 28 -40 21 0 21 1 2 9 -19 8 -19 9 3 9 17 1
23 6 20 19 -5 25 -45 28 -53 3z m35 -1 c0 -5 -4 -10 -10 -10 -5 0 -10 5 -10
10 0 6 5 10 10 10 6 0 10 -4 10 -10z"/>
<path d="M5211 2377 c-18 -23 -2 -49 28 -45 20 2 26 8 26 28 0 29 -34 40 -54
17z m39 -17 c0 -11 -7 -20 -15 -20 -15 0 -21 21 -8 33 12 13 23 7 23 -13z"/>
<path d="M650 2205 c0 -25 5 -45 10 -45 6 0 10 9 10 20 0 29 37 27 43 -2 2
-13 5 0 5 27 1 39 -1 45 -8 28 -12 -28 -40 -30 -40 -3 0 11 -4 20 -10 20 -5 0
-10 -20 -10 -45z"/>
<path d="M1623 2205 c0 -27 2 -38 4 -22 2 15 2 37 0 50 -2 12 -4 0 -4 -28z"/>
<path d="M1812 2205 c-1 -38 1 -46 9 -35 8 11 12 12 16 3 9 -23 20 -13 19 17
-1 26 -16 45 -16 20 0 -23 -19 -8 -23 18 -2 15 -5 6 -5 -23z"/>
<path d="M746 2205 c-9 -24 4 -45 29 -45 13 0 25 7 29 15 9 24 -4 45 -29 45
-13 0 -25 -7 -29 -15z m44 -15 c0 -11 -7 -20 -15 -20 -8 0 -15 9 -15 20 0 11
7 20 15 20 8 0 15 -9 15 -20z"/>
<path d="M820 2190 c0 -16 5 -30 10 -30 6 0 10 11 10 25 0 14 5 25 10 25 6 0
10 -11 10 -25 0 -14 5 -25 10 -25 6 0 10 14 10 30 0 27 -3 30 -30 30 -27 0
-30 -3 -30 -30z"/>
<path d="M898 2208 c5 -7 12 -22 15 -33 3 -13 5 -9 6 13 1 23 -3 32 -15 32
-12 0 -14 -3 -6 -12z"/>
<path d="M944 2205 c-10 -24 4 -45 28 -44 17 1 18 2 6 6 -19 5 -25 43 -7 43 5
0 7 -4 4 -10 -3 -5 -1 -10 4 -10 6 0 11 7 11 15 0 8 -9 15 -20 15 -11 0 -23
-7 -26 -15z"/>
<path d="M1051 2173 c1 -26 3 -40 6 -31 2 9 14 18 26 20 16 2 22 10 22 28 0
20 -6 26 -27 28 -27 3 -28 2 -27 -45z m39 17 c0 -11 -4 -20 -9 -20 -14 0 -23
18 -16 30 10 17 25 11 25 -10z"/>
<path d="M1140 2211 l25 -7 -22 -8 c-31 -10 -30 -36 2 -36 21 0 25 5 25 30 0
26 -3 30 -27 29 l-28 -1 25 -7z m15 -31 c-3 -5 -11 -10 -16 -10 -6 0 -7 5 -4
10 3 6 11 10 16 10 6 0 7 -4 4 -10z"/>
<path d="M1197 2213 c-14 -14 -6 -45 13 -50 27 -7 25 -20 -2 -26 -16 -4 -13
-5 7 -4 28 2 30 5 33 45 3 39 1 42 -21 42 -13 0 -27 -3 -30 -7z m33 -23 c0
-11 -4 -20 -9 -20 -14 0 -23 18 -16 30 10 17 25 11 25 -10z"/>
<path d="M1274 2205 c-10 -24 4 -45 28 -44 17 1 18 2 6 6 -19 5 -25 43 -7 43
5 0 7 -4 4 -10 -3 -5 -1 -10 4 -10 6 0 11 7 11 15 0 8 -9 15 -20 15 -11 0 -23
-7 -26 -15z"/>
<path d="M1374 2205 c-10 -24 4 -45 28 -44 17 1 18 2 6 6 -10 2 -18 13 -18 23
0 10 8 21 18 23 12 4 11 5 -6 6 -12 0 -25 -6 -28 -14z"/>
<path d="M1455 2211 c19 -8 19 -8 -2 -15 -34 -11 -29 -36 7 -36 19 0 30 5 30
14 0 29 -13 46 -34 45 -20 0 -20 -1 -1 -8z m15 -31 c0 -5 -4 -10 -10 -10 -5 0
-10 5 -10 10 0 6 5 10 10 10 6 0 10 -4 10 -10z"/>
<path d="M1500 2190 c0 -16 5 -30 10 -30 6 0 10 12 10 26 0 32 22 27 31 -7 6
-21 7 -21 8 9 1 29 -2 32 -29 32 -27 0 -30 -3 -30 -30z"/>
<path d="M1654 2206 c-10 -26 4 -48 28 -44 17 2 23 10 23 28 0 18 -6 26 -23
28 -13 2 -25 -3 -28 -12z m42 -7 c10 -17 -13 -36 -27 -22 -12 12 -4 33 11 33
5 0 12 -5 16 -11z"/>
<path d="M1734 2206 c-10 -26 4 -48 28 -44 17 2 23 10 23 28 0 18 -6 26 -23
28 -13 2 -25 -3 -28 -12z m42 -7 c10 -17 -13 -36 -27 -22 -12 12 -4 33 11 33
5 0 12 -5 16 -11z"/>
<path d="M1914 2204 c3 -9 6 -22 6 -30 0 -22 20 -16 30 9 6 16 9 17 9 5 1 -16
18 -34 26 -26 2 1 6 17 10 33 l6 30 -15 -25 c-15 -25 -15 -25 -16 -2 0 12 -4
22 -8 22 -5 0 -14 -10 -20 -22 l-11 -23 0 23 c-1 12 -6 22 -12 22 -6 0 -8 -7
-5 -16z"/>
<path d="M2035 2211 c19 -8 19 -8 -3 -15 -30 -10 -23 -30 12 -34 25 -3 27 -1
24 25 -2 22 -9 29 -28 30 -22 2 -23 2 -5 -6z m15 -31 c0 -5 -4 -10 -10 -10 -5
0 -10 5 -10 10 0 6 5 10 10 10 6 0 10 -4 10 -10z"/>
<path d="M2085 2203 c16 -40 17 -55 4 -64 -11 -7 -11 -9 2 -9 14 0 49 62 49
85 0 16 -19 1 -23 -17 l-4 -23 -8 23 c-4 12 -12 22 -17 22 -6 0 -7 -8 -3 -17z"/>
<path d="M651 2037 c-1 -47 0 -48 27 -45 21 2 27 8 27 28 0 18 -6 26 -22 28
-12 2 -24 11 -26 20 -3 9 -5 -5 -6 -31z m39 -17 c0 -21 -15 -27 -25 -10 -7 12
2 30 16 30 5 0 9 -9 9 -20z"/>
<path d="M798 2058 c-6 -18 5 -61 17 -65 8 -2 10 24 6 70 -1 12 -18 8 -23 -5z"/>
<path d="M848 2058 c-6 -18 5 -61 17 -65 8 -2 10 24 6 70 -1 12 -18 8 -23 -5z"/>
<path d="M726 2034 c-8 -20 10 -44 32 -44 13 0 12 3 -4 15 -18 14 -18 14 4 15
29 0 24 24 -5 28 -12 2 -23 -4 -27 -14z m41 0 c-3 -3 -12 -4 -19 -1 -8 3 -5 6
6 6 11 1 17 -2 13 -5z"/>
<path d="M894 2036 c-10 -25 3 -46 28 -45 17 1 18 2 6 6 -25 6 -22 23 3 23 27
0 19 24 -9 28 -13 2 -25 -3 -28 -12z"/>
<path d="M960 2020 c0 -16 5 -30 10 -30 6 0 10 11 10 24 0 13 6 27 13 29 6 3
2 6 -10 6 -19 1 -23 -4 -23 -29z"/>
<path d="M1005 2000 c-3 -5 -1 -10 4 -10 6 0 11 5 11 10 0 6 -2 10 -4 10 -3 0
-8 -4 -11 -10z"/>
<path d="M2809 1155 c-10 -9 3 -64 15 -68 9 -4 12 6 11 31 -2 33 -14 50 -26
37z"/>
<path d="M2986 1153 c-7 -7 4 -55 15 -67 5 -5 12 -6 16 -2 4 4 1 11 -7 16 -12
8 -13 13 -3 29 10 15 9 20 -1 24 -8 3 -17 3 -20 0z"/>
<path d="M2862 1138 c-6 -6 -12 -18 -12 -25 0 -16 37 -36 45 -24 3 5 -3 12
-12 14 -13 3 -12 5 5 6 17 1 22 6 20 18 -4 22 -29 28 -46 11z m33 -8 c3 -5 -1
-10 -10 -10 -9 0 -13 5 -10 10 3 6 8 10 10 10 2 0 7 -4 10 -10z"/>
<path d="M2924 1138 c-4 -6 1 -17 11 -25 17 -12 13 -18 -8 -14 -5 1 -6 -3 -2
-9 8 -13 16 -12 35 0 13 9 12 12 -5 26 -17 13 -18 16 -5 24 13 8 13 10 -2 10
-9 0 -20 -5 -24 -12z"/>
<path d="M655 1096 c-13 -19 -14 -29 -5 -45 11 -21 60 -30 60 -12 0 5 -7 8
-16 7 -9 0 -21 7 -28 17 -9 15 -7 21 8 32 10 8 23 12 27 9 5 -3 9 0 9 5 0 21
-40 11 -55 -13z"/>
<path d="M880 1075 c0 -25 5 -45 10 -45 6 0 10 20 10 45 0 25 -4 45 -10 45 -5
0 -10 -20 -10 -45z"/>
<path d="M1142 1104 c-10 -18 -3 -74 9 -74 5 0 9 11 9 25 0 16 6 25 15 25 9 0
15 -9 15 -25 0 -34 20 -32 21 3 1 15 1 31 0 36 -1 5 4 13 11 17 10 7 8 9 -5 9
-10 0 -20 -7 -23 -15 -4 -8 -12 -15 -20 -15 -17 0 -18 17 -1 23 7 3 5 6 -5 6
-9 1 -21 -6 -26 -15z"/>
<path d="M4973 1075 c0 -27 2 -38 4 -22 2 15 2 37 0 50 -2 12 -4 0 -4 -28z"/>
<path d="M5440 1075 c0 -25 5 -45 10 -45 6 0 10 11 10 25 0 33 16 32 28 -2
l10 -28 1 33 c1 26 -3 32 -19 32 -11 0 -20 7 -20 15 0 8 -4 15 -10 15 -5 0
-10 -20 -10 -45z"/>
<path d="M5717 1113 c-4 -3 -3 -11 2 -17 5 -6 11 -24 14 -41 3 -22 4 -17 6 18
1 44 -6 57 -22 40z"/>
<path d="M5781 1106 c-20 -24 -10 -70 16 -74 17 -3 24 3 29 22 13 52 -17 86
-45 52z m29 -31 c0 -19 -4 -35 -10 -35 -5 0 -10 16 -10 35 0 19 5 35 10 35 6
0 10 -16 10 -35z"/>
<path d="M5848 1095 c-14 -32 -1 -60 28 -60 15 0 19 7 19 40 0 49 -28 61 -47
20z m40 -26 c-1 -13 -7 -23 -13 -22 -13 3 -18 30 -11 50 10 24 29 1 24 -28z"/>
<path d="M6022 1075 c0 -34 2 -42 7 -26 9 35 29 37 34 4 4 -27 4 -27 6 5 1 25
-3 32 -18 32 -11 0 -22 8 -24 18 -3 9 -5 -5 -5 -33z"/>
<path d="M1016 1101 c-11 -18 6 -71 23 -70 10 0 11 2 4 6 -15 5 -17 40 -4 45
5 2 3 9 -4 15 -8 7 -16 9 -19 4z"/>
<path d="M5398 1099 c-8 -23 4 -69 18 -69 12 0 12 4 2 20 -11 17 -11 22 0 29
10 6 10 10 -2 20 -11 9 -15 9 -18 0z"/>
<path d="M726 1074 c-9 -22 12 -46 38 -42 15 2 21 10 21 28 0 20 -6 26 -26 28
-18 2 -29 -3 -33 -14z m44 -15 c0 -24 -23 -21 -28 4 -2 10 3 17 12 17 10 0 16
-9 16 -21z"/>
<path d="M806 1075 c-9 -24 4 -45 29 -45 24 0 42 30 30 50 -10 15 -52 12 -59
-5z m44 -15 c0 -11 -7 -20 -15 -20 -8 0 -15 9 -15 20 0 11 7 20 15 20 8 0 15
-9 15 -20z"/>
<path d="M954 1079 c-4 -7 1 -16 12 -22 17 -10 17 -11 -1 -18 -19 -7 -19 -8 2
-8 28 -1 37 13 17 29 -12 11 -12 15 -2 21 10 7 9 9 -4 9 -9 0 -20 -5 -24 -11z"/>
<path d="M1062 1063 c2 -22 9 -29 31 -31 24 -3 27 0 27 27 0 17 -4 31 -10 31
-5 0 -10 -11 -10 -25 0 -14 -4 -25 -10 -25 -5 0 -10 11 -10 25 0 14 -5 25 -11
25 -6 0 -9 -12 -7 -27z"/>
<path d="M5004 1075 c-9 -23 3 -45 24 -45 25 0 44 23 36 44 -8 20 -53 21 -60
1z m44 -12 c-5 -25 -28 -28 -28 -4 0 12 6 21 16 21 9 0 14 -7 12 -17z"/>
<path d="M5080 1060 c0 -16 5 -30 10 -30 6 0 10 11 10 25 0 14 5 25 10 25 6 0
10 -11 10 -25 0 -14 5 -25 10 -25 6 0 10 14 10 30 0 27 -3 30 -30 30 -27 0
-30 -3 -30 -30z"/>
<path d="M5160 1064 c0 -17 6 -28 20 -31 27 -7 25 -21 -2 -26 -21 -4 -20 -4 3
-6 29 -1 39 14 39 60 0 26 -4 29 -30 29 -26 0 -30 -4 -30 -26z m40 -4 c0 -21
-15 -27 -25 -10 -7 12 2 30 16 30 5 0 9 -9 9 -20z"/>
<path d="M5236 1074 c-8 -22 11 -44 38 -43 21 2 21 2 -1 6 -24 5 -29 43 -5 43
7 0 10 -4 7 -10 -3 -5 -1 -10 5 -10 20 0 5 25 -17 28 -12 2 -23 -4 -27 -14z"/>
<path d="M5311 1058 c1 -21 3 -26 6 -13 3 11 12 26 21 33 14 11 13 12 -6 12
-18 0 -22 -5 -21 -32z"/>
<path d="M5533 1083 c18 -4 18 -6 -2 -20 -26 -18 -19 -33 15 -33 22 0 25 4 22
28 -2 21 -9 27 -28 29 -16 1 -19 0 -7 -4z m17 -33 c0 -5 -4 -10 -10 -10 -5 0
-10 5 -10 10 0 6 5 10 10 10 6 0 10 -4 10 -10z"/>
<path d="M5591 1058 c1 -29 2 -30 8 -9 9 34 31 39 31 7 0 -14 5 -26 11 -26 6
0 9 12 7 28 -2 21 -9 28 -30 30 -26 3 -28 1 -27 -30z"/>
<path d="M5956 1075 c-9 -24 4 -45 28 -45 19 1 19 2 4 11 -10 5 -18 16 -18 24
0 7 8 16 18 18 13 4 12 5 -4 6 -12 0 -24 -6 -28 -14z"/>
<path d="M6110 1081 c25 -7 25 -7 3 -13 -32 -8 -30 -38 2 -38 21 0 25 5 25 30
0 26 -3 30 -27 29 l-28 -1 25 -7z m15 -31 c-3 -5 -11 -10 -16 -10 -6 0 -7 5
-4 10 3 6 11 10 16 10 6 0 7 -4 4 -10z"/>
<path d="M6160 1060 c0 -16 5 -30 10 -30 6 0 10 11 10 24 0 13 6 27 13 29 6 3
2 6 -10 6 -19 1 -23 -4 -23 -29z"/>
</g>
</svg>
